<?xml version="1.0" standalone="no"?>
<!DOCTYPE svg PUBLIC "-//W3C//DTD SVG 20010904//EN"
 "http://www.w3.org/TR/2001/REC-SVG-20010904/DTD/svg10.dtd">
<svg version="1.0" xmlns="http://www.w3.org/2000/svg"
 width="512.000000pt" height="512.000000pt" viewBox="0 0 512.000000 512.000000"
 preserveAspectRatio="xMidYMid meet">
<metadata>
Created by potrace 1.11, written by Peter Selinger 2001-2013
</metadata>
<g transform="translate(0.000000,512.000000) scale(0.100000,-0.100000)"
fill="#000000" stroke="none">
<path d="M1874 5106 c-11 -8 -44 -50 -74 -93 -114 -167 -143 -208 -151 -213
-4 -3 -90 -5 -191 -4 -203 1 -275 -11 -366 -61 -82 -45 -179 -159 -267 -314
-6 -11 -22 -36 -37 -57 -14 -22 -137 -214 -274 -429 -136 -214 -308 -484 -381
-599 -73 -115 -133 -214 -133 -222 0 -7 4 -24 10 -39 10 -26 54 -50 329 -176
125 -58 334 -157 516 -244 72 -34 140 -65 153 -69 l22 -7 0 -802 c0 -868 -2
-837 52 -850 22 -6 23 -10 23 -103 0 -90 -2 -97 -21 -105 -52 -19 -54 -30 -54
-362 l0 -308 25 -24 24 -25 1481 0 1481 0 24 25 25 24 0 919 c0 915 0 919 -21
946 -11 14 -27 26 -35 26 -8 0 -14 11 -15 28 -1 27 -1 132 0 163 1 9 11 19 24
23 40 10 47 44 47 239 l1 182 87 40 c48 22 152 71 232 109 80 38 147 70 150
71 3 0 30 13 60 27 30 15 147 70 260 122 113 53 213 106 222 117 10 12 18 31
18 43 0 25 2 22 -534 862 -220 345 -414 643 -430 664 -58 69 -167 136 -256
156 -19 4 -124 8 -232 9 -109 1 -200 3 -202 6 -2 2 -45 65 -95 139 -51 74
-104 145 -117 158 l-25 22 -667 0 c-559 0 -671 -2 -688 -14z"/>
</g>
</svg>
